<?xml version="1.0" encoding="utf-8"?>
<!-- Generator: Adobe Illustrator 21.1.0, SVG Export Plug-In . SVG Version: 6.00 Build 0)  -->
<svg version="1.1" id="레이어_1" xmlns="http://www.w3.org/2000/svg" xmlns:xlink="http://www.w3.org/1999/xlink" x="0px"
	 y="0px" viewBox="0 0 77.9 60" style="enable-background:new 0 0 77.9 60;" xml:space="preserve">
<style type="text/css">
	.st0{fill:#1DFFFF;}
	.st1{fill:#250F07;}
	.st2{fill:#1C1659;}
	.st3{fill:#27D8D3;}
	.st4{fill:#009991;}
</style>
<g>
	<rect x="18" y="54" class="st0" width="47.9" height="6"/>
	<rect x="12" y="24" class="st1" width="6" height="6"/>
	<rect y="24" class="st2" width="6" height="6"/>
	<rect y="36" class="st2" width="6" height="6"/>
	<rect x="42" y="24" class="st1" width="6" height="6"/>
	<rect x="24" y="30" class="st1" width="6" height="6"/>
	<rect x="18" y="36" class="st1" width="6" height="6"/>
	<rect x="30" y="36" class="st1" width="6" height="6"/>
	<rect x="59.9" y="18.1" class="st3" width="6" height="6"/>
	<rect x="48" class="st3" width="6" height="6"/>
	<rect x="42" y="6" class="st3" width="6" height="6"/>
	<rect x="24" y="6" class="st3" width="6" height="6"/>
	<rect x="18" class="st3" width="6" height="6"/>
	<rect x="12" y="6" class="st3" width="6" height="12"/>
	<rect x="18" y="6" class="st4" width="6" height="6"/>
	<rect x="65.9" y="42" class="st4" width="6" height="6"/>
	<rect x="59.9" y="48.1" class="st4" width="6" height="6"/>
	<rect x="53.9" y="6" class="st3" width="6" height="12"/>
	<rect x="48" y="6" class="st4" width="6" height="12"/>
	<rect x="65.9" y="30" class="st3" width="6" height="6"/>
	<rect x="59.9" y="24" class="st2" width="18" height="6"/>
	<rect x="59.9" y="36" class="st2" width="18" height="6"/>
	<path class="st0" d="M65.9,36v-6h-6V18H48v-6H18v6h-6v6h6v6h-6v-6H6v6v0v6v6v0.1v6h6v6h24h0h12h0h12v-6h6v-6h-6v-6H65.9z M48,24v6
		h-6v-6H48z M30,30v6h-6v-6H30z M24,36v6h-6v-6H24z M30,42v-6h6v6H30z"/>
</g>
</svg>
